0
SECTION
2
HEADER
9
$ACADVER
1
AC1009
9
$INSBASE
10
0.000000000000
20
0.000000000000
30
0.000000000000
9
$EXTMIN
10
0.000000000000
20
0.000000000000
30
0.000000000000
9
$EXTMAX
10
100.000000000000
20
55.000000000000
30
0.000000000000
0
ENDSEC
0
SECTION
2
TABLES
0
TABLE
2
LAYER
70
3
0
LAYER
2
0
70
0
62
7
6
CONTINUOUS
0
LAYER
2
WALL
70
0
62
1
6
DASHED
0
LAYER
2
DIMENSION
70
0
62
3
6
CONTINUOUS
0
ENDTAB
0
ENDSEC
0
SECTION
2
ENTITIES
0
LINE
5
1
8
WALL
10
0.000000000000
20
0.000000000000
11
100.000000000000
21
0.000000000000
0
LINE
5
2
8
WALL
10
100.000000000000
20
0.000000000000
11
100.000000000000
21
50.000000000000
0
CIRCLE
5
3
8
0
10
50.000000000000
20
25.000000000000
40
15.000000000000
0
ARC
5
4
8
DIMENSION
10
50.000000000000
20
25.000000000000
40
30.000000000000
50
0.000000000000
51
90.000000000000
0
POLYLINE
5
5
8
WALL
66
1
70
1
0
VERTEX
8
WALL
10
0.000000000000
20
0.000000000000
0
VERTEX
8
WALL
10
20.000000000000
20
0.000000000000
0
VERTEX
8
WALL
10
20.000000000000
20
20.000000000000
0
VERTEX
8
WALL
10
0.000000000000
20
20.000000000000
0
SEQEND
0
ENDSEC
0
EOF
